<svg width="2428" height="1227" viewBox="0 0 2428 1227" fill="none" xmlns="http://www.w3.org/2000/svg">
<g clip-path="url(#clip0_3_10)">
<path opacity="0.75" d="M1520.61 0H2021.47L2177.34 269.93L2121.49 366.71L1927.5 702.83L1771.33 432.45L1771.04 431.86L1520.61 0Z" fill="white"/>
<path d="M2177.34 269.93L2233.19 366.71L2427.18 702.68L2371.33 799.6L2124.89 1226.29H1625.21L1870.62 801.08L1871.5 799.6L1927.5 702.83L2121.49 366.71L2177.34 269.93Z" fill="white"/>
<path d="M708 0H1208.86L1364.73 269.93L1420.58 366.71L1614.57 702.68L1558.72 799.6L1312.28 1226.3H812.61L1058.01 801.08L1058.9 799.6L1114.89 702.83V702.68L958.73 432.45L958.43 431.86L746.12 799.6L499.68 1226.3H0L245.41 801.08L246.29 799.6L496.28 366.71L708 0Z" fill="white"/>
</g>
<defs>
<clipPath id="clip0_3_10">
<rect width="2427.18" height="1226.3" fill="white"/>
</clipPath>
</defs>
</svg>
